<svg width="16" height="16" viewBox="0 0 16 16" fill="none" xmlns="http://www.w3.org/2000/svg">
<g clip-path="url(#clip0_3058_627)">
<path d="M13.3438 0H2.65625C1.18924 0 0 1.21779 0 2.72V13.2544C0 14.7566 1.18924 15.9744 2.65625 15.9744H13.3438C14.8108 15.9744 16 14.7566 16 13.2544V2.72C16 1.21779 14.8108 0 13.3438 0Z" fill="#001E36"/>
<path d="M8.40352 11.2898H4.17458C4.10296 11.2898 4.06719 11.2494 4.06727 11.1688V4.18966C4.06539 4.17623 4.06659 4.16253 4.07078 4.14965C4.07497 4.13677 4.08202 4.12507 4.09139 4.11547C4.10076 4.10587 4.11219 4.09863 4.12476 4.09434C4.13733 4.09004 4.15071 4.0888 4.16383 4.09072H5.47333C5.48354 4.08925 5.49394 4.09022 5.50372 4.09357C5.51349 4.09692 5.52237 4.10255 5.52966 4.11002C5.53694 4.11748 5.54243 4.12658 5.5457 4.1366C5.54896 4.14661 5.5499 4.15726 5.54846 4.16771V9.90499H8.62889C8.69327 9.90499 8.71833 9.93795 8.70408 10.0039L8.51083 11.1909C8.51038 11.2071 8.50626 11.223 8.49881 11.2373C8.49136 11.2516 8.48078 11.2639 8.46789 11.2733C8.44799 11.2839 8.42594 11.2895 8.40352 11.2898M9.46602 5.82729H10.636C10.7012 5.82793 10.7582 5.87274 10.7755 5.93725C10.801 5.98539 10.8191 6.03729 10.8292 6.0911C10.8441 6.16189 10.8548 6.23333 10.8613 6.30544C10.8684 6.38237 10.872 6.4648 10.8721 6.55273C11.0727 6.31349 11.3147 6.11415 11.5858 5.9647C11.8904 5.79604 12.2325 5.71085 12.5787 5.71741C12.5918 5.71549 12.6052 5.71673 12.6178 5.72103C12.6304 5.72532 12.6418 5.73256 12.6511 5.74216C12.6605 5.75176 12.6676 5.76346 12.6718 5.77634C12.6759 5.78922 12.6771 5.80292 12.6753 5.81635V7.14627C12.6753 7.1976 12.6395 7.22324 12.568 7.2232C12.1356 7.1958 11.7031 7.27494 11.3068 7.45398C11.1721 7.51371 11.05 7.59956 10.9472 7.70678V11.1909C10.9472 11.2569 10.9186 11.2898 10.8613 11.2898H9.56258C9.548 11.292 9.53314 11.2906 9.51916 11.2858C9.50519 11.2811 9.49249 11.273 9.48208 11.2624C9.47166 11.2517 9.46382 11.2387 9.45917 11.2244C9.45451 11.2101 9.45318 11.1949 9.45527 11.1799V7.39901C9.45527 7.30697 9.45469 7.21189 9.45352 7.11376L9.45133 6.96438C9.45091 6.93908 9.45044 6.91361 9.44989 6.88797C9.44716 6.75433 9.44346 6.62072 9.43877 6.48713L9.43377 6.35491C9.42902 6.20391 9.4147 6.05339 9.39089 5.90429C9.38838 5.89432 9.38827 5.88388 9.39059 5.87387C9.39292 5.86386 9.39759 5.85458 9.40422 5.84684C9.41084 5.8391 9.41921 5.83313 9.4286 5.82946C9.43798 5.82578 9.4481 5.82451 9.45808 5.82576L9.46602 5.82729Z" fill="#31A8FF"/>
</g>
<defs>
<clipPath id="clip0_3058_627">
<rect width="16" height="16" fill="white"/>
</clipPath>
</defs>
</svg>
